#!OML:ASF H:\Terrain\Patient Classification 1\Walking\liu\liu.ASF
:FULLY-SPECIFIED
:DEGREES
243
root 9.196850 16.225599 -2.519570 10.180200 -4.608760 -3.775320
lowerback -74.398201 20.470501 8.814500
upperback -25.168098 26.136600 21.972698
thorax 15.044900 13.093400 19.924299
lowerneck -182.380005 -59.791397 -140.635010
upperneck 163.108002 -76.342606 155.087006
head 93.223106 -29.228498 67.179703
rclavicle 0.000000 -0.000000
rhumerus -452.118988 76.495598 -869.639954
rradius 429.656982
rwrist -220.348999
rhand -289.598022 -231.483002
rfingers 71.250198
rthumb -23.128500 -531.155029
lclavicle 0.000000 -0.000000
lhumerus -470.583984 -47.145699 882.932007
lradius 195.733002
lwrist -61.505600
lhand -68.307999 -245.058990
lfingers 71.250198
lthumb 190.335007 45.827599
rfemur 168.104004 38.152100 238.356003
rtibia 159.498993
rfoot 53.796803 44.279400
rtoes -157.201004
lfemur -468.815002 91.596100 -212.268005
ltibia 427.033020
lfoot -56.156601 51.421501
ltoes -0.419034
244
root 9.238380 16.261700 -2.358860 10.131200 -4.967070 -3.342080
lowerback -74.209396 21.781700 6.971000
upperback -25.282801 28.068199 19.555901
thorax 14.804200 14.055200 18.616501
lowerneck -184.381012 -60.875000 -138.278000
upperneck 165.328003 -77.778404 151.671997
head 94.322205 -29.980700 65.339195
rclavicle 0.000000 -0.000000
rhumerus -455.187988 75.701096 -870.093994
rradius 425.385010
rwrist -223.455994
rhand -292.553986 -233.686996
rfingers 71.250198
rthumb -25.983801 -533.325989
lclavicle 0.000000 -0.000000
lhumerus -464.664001 -49.769501 882.054993
lradius 194.223007
lwrist -58.918301
lhand -60.489502 -225.690994
lfingers 71.250198
lthumb 197.852997 64.439400
rfemur 148.740997 30.989300 227.987000
rtibia 200.625992
rfoot 63.262402 46.833702
rtoes -142.915009
lfemur -460.234009 91.780396 -217.667999
ltibia 426.096008
lfoot -63.424500 51.503101
ltoes 8.829600
245
root 9.273260 16.299000 -2.207590 10.039600 -5.206670 -2.704710
lowerback -70.657204 21.227400 0.674147
upperback -27.248001 27.883602 18.485399
thorax 10.570200 14.012001 20.811001
lowerneck -185.841003 -60.480000 -138.505997
upperneck 168.868011 -76.818100 149.227997
head 95.533302 -29.712000 64.731003
rclavicle -0.000000 0.000000
rhumerus -463.516998 82.231705 -873.020996
rradius 425.754028
rwrist -233.507004
rhand -304.204987 -244.115005
rfingers 71.250198
rthumb -37.235001 -543.586975
lclavicle -0.000000 0.000000
lhumerus -461.729004 -48.634399 881.809021
lradius 192.404007
lwrist -61.325600
lhand -61.224098 -218.112000
lfingers 71.250198
lthumb 197.147003 72.090996
rfemur 131.540009 23.036800 216.390991
rtibia 238.157990
rfoot 70.271698 50.357597
rtoes -155.738007
lfemur -452.156982 91.462799 -226.014008
ltibia 425.041992
lfoot -68.071701 51.713299
ltoes 0.078502
246
root 9.311210 16.330601 -2.056900 9.938530 -5.502410 -2.127790
lowerback -67.559097 20.538300 -4.526670
upperback -29.074800 27.369202 17.609299
thorax 6.788020 13.820601 22.600801
lowerneck -186.564011 -59.572102 -138.695007
upperneck 172.712006 -75.279900 146.886993
head 96.631203 -29.199400 64.260498
rclavicle 0.000000 0.000000
rhumerus -466.813019 85.882599 -874.446045
rradius 417.643005
rwrist -237.894989
rhand -309.037994 -234.873016
rfingers 71.250198
rthumb -41.902901 -534.257996
lclavicle 0.000000 0.000000
lhumerus -459.555023 -45.804802 879.888000
lradius 192.964996
lwrist -67.960602
lhand -70.697098 -230.447998
lfingers 71.250198
lthumb 188.038010 60.663799
rfemur 116.114998 18.586100 206.044006
rtibia 273.822998
rfoot 79.478996 50.576702
rtoes -160.578995
lfemur -443.811981 92.717201 -234.003998
ltibia 423.214996
lfoot -73.131897 52.092701
ltoes -14.112901
247
root 9.355600 16.358601 -1.900360 9.762380 -5.854430 -1.799920
lowerback -63.852901 20.537800 -6.759970
upperback -30.696699 27.539101 17.469200
thorax 2.956670 13.967400 23.518299
lowerneck -184.737000 -58.516102 -139.529999
upperneck 174.769989 -73.770897 145.852997
head 96.739197 -28.725201 64.334198
rclavicle -0.000000 -0.000000
rhumerus -468.088013 82.434700 -868.000000
rradius 405.610992
rwrist -219.297012
rhand -291.518005 -225.261002
rfingers 71.250198
rthumb -24.983301 -524.911987
lclavicle -0.000000 -0.000000
lhumerus -457.579987 -47.630402 882.268982
lradius 199.566010
lwrist -73.020699
lhand -73.617302 -225.697998
lfingers 71.250198
lthumb 185.229004 65.682701
rfemur 102.037003 13.702499 197.541016
rtibia 307.944000
rfoot 95.621300 48.829899
rtoes -153.751007
lfemur -433.739990 95.553299 -239.149002
ltibia 420.992004
lfoot -80.815804 53.145798
ltoes -6.664020
248
root 9.395610 16.395399 -1.754490 9.619480 -6.100110 -1.248240
lowerback -54.885002 19.185299 -13.109900
upperback -36.306900 26.110600 17.790300
thorax -8.045680 13.499001 26.829300
lowerneck -183.441010 -56.365898 -138.774994
upperneck 181.257996 -70.963104 142.201996
head 98.092102 -27.777599 63.508904
rclavicle 0.000000 -0.000000
rhumerus -483.419983 95.826599 -875.833008
rradius 410.503998
rwrist -241.587006
rhand -300.813995 -244.906998
rfingers 71.250198
rthumb -33.960300 -544.434021
lclavicle 0.000000 -0.000000
lhumerus -462.514984 -54.902603 892.662964
lradius 198.742996
lwrist -40.923199
lhand -90.481598 -237.438995
lfingers 71.250198
lthumb 169.001007 55.407600
rfemur 85.712997 5.341050 187.084015
rtibia 340.472992
rfoot 106.348000 48.617302
rtoes -158.888000
lfemur -423.768982 95.269897 -245.601013
ltibia 417.356995
lfoot -88.258400 54.312401
ltoes 25.930401
249
root 9.430330 16.425501 -1.621850 9.475000 -6.408980 -1.321080
lowerback -58.374599 20.088799 -9.450090
upperback -29.910099 27.094500 16.641100
thorax 0.662706 13.781300 23.935101
lowerneck -193.138000 -57.403103 -135.617996
upperneck 180.455002 -71.705696 140.893005
head 99.559204 -27.670401 62.291496
rclavicle 0.000000 0.000000
rhumerus -474.980011 97.207802 -879.036011
rradius 407.369995
rwrist -254.176010
rhand -299.229004 -269.785004
rfingers 71.250198
rthumb -32.429802 -569.335999
lclavicle 0.000000 0.000000
lhumerus -444.299011 -55.486599 887.619019
lradius 198.029007
lwrist -51.224701
lhand -92.487701 -238.446991
lfingers 71.250198
lthumb 167.070007 54.563499
rfemur 68.854301 2.775350 186.492004
rtibia 371.973999
rfoot 112.347000 39.818600
rtoes -159.513000
lfemur -413.837006 93.201302 -243.108994
ltibia 412.708008
lfoot -92.667000 56.889999
ltoes 48.901901
250
root 9.465960 16.457100 -1.478320 9.372110 -6.735660 -1.124320
lowerback -60.797199 20.644199 -9.193590
upperback -26.721399 27.803299 15.419199
thorax 5.330040 14.054800 22.758101
lowerneck -195.610992 -57.263199 -134.222000
upperneck 178.915009 -71.226204 139.958008
head 99.304108 -27.359400 61.710201
rclavicle -0.000000 0.000000
rhumerus -471.269989 100.095993 -883.735962
rradius 399.681030
rwrist -273.582001
rhand -321.859009 -229.591003
rfingers 71.250198
rthumb -54.282398 -528.695984
lclavicle -0.000000 0.000000
lhumerus -434.565002 -64.006401 890.803955
lradius 203.166016
lwrist -48.373398
lhand -96.146400 -227.576004
lfingers 71.250198
lthumb 163.546997 65.728302
rfemur 52.382797 1.586360 182.682007
rtibia 403.339996
rfoot 118.847000 31.317200
rtoes -163.768005
lfemur -403.227997 90.979401 -244.568008
ltibia 406.691010
lfoot -95.361099 60.450600
ltoes 40.701900
251
root 9.498330 16.493099 -1.332860 9.046710 -7.147600 -0.390475
lowerback -59.861000 21.017200 -15.195900
upperback -24.142498 28.643200 13.336101
thorax 7.233210 14.461599 24.053200
lowerneck -199.207001 -57.023804 -134.117004
upperneck 179.498993 -70.516800 139.938995
head 100.057999 -26.891500 61.811100
rclavicle 0.000000 -0.000000
rhumerus -464.886017 91.194496 -873.854004
rradius 396.748993
rwrist -238.563995
rhand -305.673004 -271.916016
rfingers 71.250198
rthumb -38.653198 -571.362976
lclavicle 0.000000 -0.000000
lhumerus -424.700012 -66.103806 888.219971
lradius 203.602997
lwrist -50.981796
lhand -89.824303 -234.465012
lfingers 71.250198
lthumb 169.633011 58.327698
rfemur 37.727200 0.077853 172.388000
rtibia 433.737000
rfoot 123.555000 24.547998
rtoes -175.848007
lfemur -390.359009 91.686798 -253.033005
ltibia 400.476990
lfoot -98.912895 62.628700
ltoes 31.396000
